<svg width="781" height="662" viewBox="0 0 781 662" fill="none" xmlns="http://www.w3.org/2000/svg">
<path fill-rule="evenodd" clip-rule="evenodd" d="M540.481 0.00348006C565.064 0.00348006 589.608 3.09994 612.944 10.0931C756.739 51.8431 808.553 192.749 765.271 315.912C740.727 378.85 700.6 436.291 648.045 483.225C572.817 548.285 490.264 606.039 401.4 655.792L391.661 661.045L381.531 655.444C292.356 606.039 209.336 548.285 133.406 482.877C81.2019 435.943 41.0359 378.85 16.1026 315.912C-27.9203 192.749 23.8942 51.8431 169.248 9.36244C180.546 5.88327 192.194 3.44785 203.882 2.09098H208.557C219.504 0.664522 230.373 0.00348006 241.282 0.00348006H245.567C270.111 0.664522 293.875 4.4916 316.9 11.4847H319.198C320.757 12.1458 321.925 12.8764 322.704 13.5374C331.314 16.0076 339.457 18.791 347.248 22.6181L362.052 28.5326C365.63 30.2365 369.645 32.8398 373.115 35.0898C375.314 36.5154 377.293 37.7991 378.804 38.6222C379.44 38.9572 380.086 39.2941 380.738 39.6338C384.078 41.3751 387.558 43.189 390.492 45.1978C433.775 15.6597 486.329 -0.344437 540.481 0.00348006ZM644.11 250.503C660.083 250.121 673.719 238.674 674.887 224.027V219.887C676.056 171.144 642.981 126.993 592.685 109.945C576.712 105.04 559.181 112.729 553.338 127.341C547.883 141.954 556.454 157.958 572.817 163.142C597.789 171.492 614.502 193.445 614.502 217.765V218.843C613.762 226.81 616.45 234.499 621.904 240.414C627.358 246.329 635.54 249.773 644.11 250.503Z" fill="#ffffff" fill-opacity="1"/>
</svg>
